<svg height="480pt" viewBox="-28 0 480 480" width="480pt" xmlns="http://www.w3.org/2000/svg"><path d="m272 8h-264v464h320v-408zm0 0" fill="#e2c8ac"/><g fill="#ceb195"><path d="m272 8v56h56"/><path d="m112 40h112v16h-112zm0 0"/><path d="m136 104h160v16h-160zm0 0"/><path d="m136 136h160v16h-160zm0 0"/><path d="m136 224h64v16h-64zm0 0"/><path d="m136 256h48v16h-48zm0 0"/><path d="m136 344h40v16h-40zm0 0"/><path d="m136 376h48v16h-48zm0 0"/></g><path d="m416 320c0 57.4375-46.5625 104-104 104s-104-46.5625-104-104 46.5625-104 104-104 104 46.5625 104 104zm0 0" fill="#5da364"/><path d="m231.199219 385.601562c36 44.796876 101.601562 51.199219 146.402343 15.199219 5.597657-4.800781 10.398438-9.601562 15.199219-15.199219l-21.601562-43.203124c-2.398438-4-5.597657-7.199219-10.398438-8l-24.800781-6.398438 7.199219-21.601562c.800781-1.597657.800781-3.199219.800781-4.796876v-29.601562c0-8.800781-7.199219-16-16-16h-32c-8.800781 0-16 7.199219-16 16v29.601562c0 1.597657 0 3.199219.800781 4.796876l7.199219 21.601562-24.800781 6.398438c-4.800781.800781-8 4-10.398438 8zm0 0" fill="#4a4a56"/><path d="m64 96h32c8.800781 0 16 7.199219 16 16v32c0 8.800781-7.199219 16-16 16h-32c-8.800781 0-16-7.199219-16-16v-32c0-8.800781 7.199219-16 16-16zm0 0" fill="#ceb195"/><path d="m64 216h32c8.800781 0 16 7.199219 16 16v32c0 8.800781-7.199219 16-16 16h-32c-8.800781 0-16-7.199219-16-16v-32c0-8.800781 7.199219-16 16-16zm0 0" fill="#ceb195"/><path d="m66.542969 130.140625 40.164062-40.160156 11.3125 11.3125-40.164062 40.164062zm0 0" fill="#edd9be"/><path d="m66.542969 250.140625 40.160156-40.164063 11.316406 11.316407-40.164062 40.160156zm0 0" fill="#edd9be"/><path d="m64 336h32c8.800781 0 16 7.199219 16 16v32c0 8.800781-7.199219 16-16 16h-32c-8.800781 0-16-7.199219-16-16v-32c0-8.800781 7.199219-16 16-16zm0 0" fill="#ceb195"/><path d="m66.542969 370.140625 40.160156-40.164063 11.316406 11.3125-40.164062 40.164063zm0 0" fill="#edd9be"/><path d="m112 40h112v16h-112zm0 0"/><path d="m136 104h160v16h-160zm0 0"/><path d="m136 136h160v16h-160zm0 0"/><path d="m120 128h-16v16c0 4.800781-3.199219 8-8 8h-32c-4.800781 0-8-3.199219-8-8v-32c0-4.800781 3.199219-8 8-8h16v-16h-16c-13.601562 0-24 10.398438-24 24v32c0 13.601562 10.398438 24 24 24h32c13.601562 0 24-10.398438 24-24zm0 0"/><path d="m66.542969 130.140625 40.164062-40.160156 11.3125 11.3125-40.164062 40.164062zm0 0"/><path d="m136 224h64v16h-64zm0 0"/><path d="m136 256h48v16h-48zm0 0"/><path d="m120 248h-16v16c0 4.800781-3.199219 8-8 8h-32c-4.800781 0-8-3.199219-8-8v-32c0-4.800781 3.199219-8 8-8h16v-16h-16c-13.601562 0-24 10.398438-24 24v32c0 13.601562 10.398438 24 24 24h32c13.601562 0 24-10.398438 24-24zm0 0"/><path d="m66.542969 250.140625 40.160156-40.164063 11.316406 11.316407-40.164062 40.160156zm0 0"/><path d="m136 344h40v16h-40zm0 0"/><path d="m136 376h48v16h-48zm0 0"/><path d="m40 352v32c0 13.601562 10.398438 24 24 24h32c13.601562 0 24-10.398438 24-24v-16h-16v16c0 4.800781-3.199219 8-8 8h-32c-4.800781 0-8-3.199219-8-8v-32c0-4.800781 3.199219-8 8-8h16v-16h-16c-13.601562 0-24 10.398438-24 24zm0 0"/><path d="m66.542969 370.140625 40.160156-40.164063 11.316406 11.3125-40.164062 40.164063zm0 0"/><path d="m312 432c61.601562 0 112-50.398438 112-112 0-52.800781-36.800781-98.398438-88-109.601562v-149.597657l-60.800781-60.800781h-275.199219v480h336v-32h-16v16h-304v-448h248v56h56v136.800781c-2.398438 0-5.601562-.800781-8-.800781-61.601562 0-112 50.398438-112 112s50.398438 112 112 112zm-32-404.800781 28.800781 28.800781h-28.800781zm32 388.800781c-27.199219 0-52.800781-11.199219-71.199219-32l19.199219-38.398438c.800781-2.402343 3.199219-4 5.601562-4l33.597657-8-10.398438-29.601562c0-.800781-.800781-1.601562-.800781-2.398438v-29.601562c0-4.800781 3.199219-8 8-8h32c4.800781 0 8 3.199219 8 8v29.601562c0 .796876 0 1.597657-.800781 2.398438l-9.597657 29.601562 33.597657 8c2.402343.796876 4 2.398438 5.601562 4l19.199219 38.398438c-19.199219 20.800781-44.800781 32-72 32zm0-192c52.800781 0 96 42.398438 96 95.199219 0 17.601562-4.800781 35.199219-14.398438 50.402343l-15.203124-31.203124c-3.199219-6.398438-8.796876-11.199219-16-12.796876l-16.796876-4 4.796876-13.601562c.800781-2.398438 1.601562-4.800781 1.601562-8v-28c0-13.601562-10.398438-24-24-24h-32c-13.601562 0-24 10.398438-24 24v29.601562c0 2.398438.800781 4.796876 1.601562 7.199219l4.796876 13.597657-16.796876 4c-7.203124 1.601562-12.800781 6.402343-16 12.800781l-15.203124 31.199219c-28-44.796876-13.597657-104 32-132 14.402343-9.597657 32-14.398438 49.601562-14.398438zm0 0"/></svg>